<svg width="17" height="17" viewBox="0 0 17 17" fill="none" xmlns="http://www.w3.org/2000/svg">
<path d="M9.16177 15.6884L8.5 16L7.88235 15.6884L7.30882 15.0653L6.60294 14.1306L6.07353 13.0178L5.85294 11.8605L6.07353 10.8813L6.60294 10.0801L7.52941 9.41246L8.5 9.1454L9.47059 9.41246L10.2206 9.90208L10.7941 10.5697L10.9706 11.4154V12.6172L10.6176 13.4629L10.2206 14.3976L9.69118 15.0653L9.16177 15.6884Z" fill="#3146FF"/>
<path d="M12.5588 8.96736L12.2059 9.1454L11.5882 8.72192L10.9706 8.25519L10.2647 7.8546L9.47059 7.63205L8.67647 7.54303C8.39706 7.54303 7.82059 7.56083 7.75 7.63205C7.67941 7.70326 7.13235 7.78042 6.86765 7.81009C6.63235 7.95846 6.14412 8.25519 6.07353 8.25519C5.98529 8.25519 5.5 8.47775 5.41176 8.52226C5.34118 8.55786 4.94118 8.62611 4.75 8.65579L4.04412 8.52226L3.42647 8.16617L3.07353 7.72107L2.89706 6.91988V6.1632L3.29412 5.54006L4 4.91691L4.75 4.56083L5.5 4.29377C5.80882 4.20475 6.44412 4.02671 6.51471 4.02671C6.60294 4.02671 7.52941 3.84866 7.75 3.80415C7.97059 3.75964 8.89706 3.75964 8.98529 3.75964C9.05588 3.75964 9.77941 3.87834 10.1324 3.93769C10.4853 4.04154 11.2 4.25816 11.2353 4.29377C11.2706 4.32938 12.0147 4.57567 12.3824 4.69436L13.3088 5.31751C13.5294 5.40653 13.981 5.60237 14.0225 5.67359C14.0641 5.74481 14.3582 5.64392 14.5 5.58457L14.8088 5.31751L14.9412 4.8724L14.8971 4.38279L14.5 4.02671L13.9706 3.71513L13.3088 3.27003L12.7794 3.04748L11.9853 2.64688L11.0147 2.37982L10.1324 2.20178L9.2197 2.11276H7.26471L6.42647 2.2908L5.23529 2.64688L4 3.1365L2.89706 3.75964L2.19118 4.29377L1.79412 4.64985H1.30882L1.13235 4.38279L1 4.02671L1.30882 3.5816L2.01471 3.1365L2.67647 2.64688L3.33824 2.2908C3.66176 2.14243 4.32647 1.8546 4.39706 1.89021C4.46765 1.92582 5.16176 1.60831 5.5 1.4451C5.91176 1.37092 6.74412 1.22255 6.77941 1.22255C6.81471 1.22255 7.64706 1.07418 8.05882 1C8.52941 1.04451 9.48824 1.13353 9.55882 1.13353C9.62941 1.13353 10.7059 1.2819 11.2353 1.35608L12.7794 1.89021L13.75 2.42433L14.7206 2.91395L15.5588 3.5816L16 4.29377L15.9118 5.49555L15.5588 6.02967C15.4265 6.14837 15.1529 6.39288 15.1176 6.42138C15.0824 6.44987 14.8382 6.58754 14.7206 6.65282C14.5882 6.66766 14.3059 6.69993 14.2353 6.71033C14.1647 6.72073 13.8824 6.67632 13.75 6.65282L13.3088 6.47478L12.8676 6.1632L12.2059 5.76261L11.6324 5.49555L10.9706 5.13947L10.2206 4.91691L9.55882 4.78338H8.55876H7.75L6.95588 4.91691L6.16176 5.13947L5.5 5.49555L4.83824 5.76261L4.39706 6.02967L4 6.47478V6.91988L4.26471 7.45401C4.3 7.52522 4.54412 7.60237 4.66176 7.63205C4.83824 7.5727 5.2 7.45401 5.23529 7.45401C5.27941 7.45401 5.85294 7.14243 5.85294 7.05341C5.85294 6.96439 6.51471 6.83086 6.60294 6.78635C6.69118 6.74184 7.30882 6.60831 7.39706 6.60831C7.48529 6.60831 8.05882 6.47478 8.19118 6.47478H9.16177C9.26765 6.47478 9.67647 6.5638 9.86765 6.60831L10.7941 6.91988C11.0882 7.09792 11.6941 7.45401 11.7647 7.45401C11.8353 7.45401 12.3529 7.86944 12.6029 8.07715L12.8676 8.47775L12.5588 8.96736Z" fill="#3146FF"/>
<path d="M9.16177 15.6884L8.5 16L7.88235 15.6884L7.30882 15.0653L6.60294 14.1306L6.07353 13.0178L5.85294 11.8605L6.07353 10.8813L6.60294 10.0801L7.52941 9.41246L8.5 9.1454L9.47059 9.41246L10.2206 9.90208L10.7941 10.5697L10.9706 11.4154V12.6172L10.6176 13.4629L10.2206 14.3976L9.69118 15.0653L9.16177 15.6884Z" stroke="#3146FF"/>
<path d="M12.5588 8.96736L12.2059 9.1454L11.5882 8.72192L10.9706 8.25519L10.2647 7.8546L9.47059 7.63205L8.67647 7.54303C8.39706 7.54303 7.82059 7.56083 7.75 7.63205C7.67941 7.70326 7.13235 7.78042 6.86765 7.81009C6.63235 7.95846 6.14412 8.25519 6.07353 8.25519C5.98529 8.25519 5.5 8.47775 5.41176 8.52226C5.34118 8.55786 4.94118 8.62611 4.75 8.65579L4.04412 8.52226L3.42647 8.16617L3.07353 7.72107L2.89706 6.91988V6.1632L3.29412 5.54006L4 4.91691L4.75 4.56083L5.5 4.29377C5.80882 4.20475 6.44412 4.02671 6.51471 4.02671C6.60294 4.02671 7.52941 3.84866 7.75 3.80415C7.97059 3.75964 8.89706 3.75964 8.98529 3.75964C9.05588 3.75964 9.77941 3.87834 10.1324 3.93769C10.4853 4.04154 11.2 4.25816 11.2353 4.29377C11.2706 4.32938 12.0147 4.57567 12.3824 4.69436L13.3088 5.31751C13.5294 5.40653 13.981 5.60237 14.0225 5.67359C14.0641 5.74481 14.3582 5.64392 14.5 5.58457L14.8088 5.31751L14.9412 4.8724L14.8971 4.38279L14.5 4.02671L13.9706 3.71513L13.3088 3.27003L12.7794 3.04748L11.9853 2.64688L11.0147 2.37982L10.1324 2.20178L9.2197 2.11276H7.26471L6.42647 2.2908L5.23529 2.64688L4 3.1365L2.89706 3.75964L2.19118 4.29377L1.79412 4.64985H1.30882L1.13235 4.38279L1 4.02671L1.30882 3.5816L2.01471 3.1365L2.67647 2.64688L3.33824 2.2908C3.66176 2.14243 4.32647 1.8546 4.39706 1.89021C4.46765 1.92582 5.16176 1.60831 5.5 1.4451C5.91176 1.37092 6.74412 1.22255 6.77941 1.22255C6.81471 1.22255 7.64706 1.07418 8.05882 1C8.52941 1.04451 9.48824 1.13353 9.55882 1.13353C9.62941 1.13353 10.7059 1.2819 11.2353 1.35608L12.7794 1.89021L13.75 2.42433L14.7206 2.91395L15.5588 3.5816L16 4.29377L15.9118 5.49555L15.5588 6.02967C15.4265 6.14837 15.1529 6.39288 15.1176 6.42138C15.0824 6.44987 14.8382 6.58754 14.7206 6.65282C14.5882 6.66766 14.3059 6.69993 14.2353 6.71033C14.1647 6.72073 13.8824 6.67632 13.75 6.65282L13.3088 6.47478L12.8676 6.1632L12.2059 5.76261L11.6324 5.49555L10.9706 5.13947L10.2206 4.91691L9.55882 4.78338H8.55876H7.75L6.95588 4.91691L6.16176 5.13947L5.5 5.49555L4.83824 5.76261L4.39706 6.02967L4 6.47478V6.91988L4.26471 7.45401C4.3 7.52522 4.54412 7.60237 4.66176 7.63205C4.83824 7.5727 5.2 7.45401 5.23529 7.45401C5.27941 7.45401 5.85294 7.14243 5.85294 7.05341C5.85294 6.96439 6.51471 6.83086 6.60294 6.78635C6.69118 6.74184 7.30882 6.60831 7.39706 6.60831C7.48529 6.60831 8.05882 6.47478 8.19118 6.47478H9.16177C9.26765 6.47478 9.67647 6.5638 9.86765 6.60831L10.7941 6.91988C11.0882 7.09792 11.6941 7.45401 11.7647 7.45401C11.8353 7.45401 12.3529 7.86944 12.6029 8.07715L12.8676 8.47775L12.5588 8.96736Z" stroke="#3146FF"/>
</svg>
